<svg width="73" height="72" viewBox="0 0 73 72" fill="none" xmlns="http://www.w3.org/2000/svg">
<rect x="4.5" y="4" width="64" height="64" rx="32" fill="#D1FADF"/>
<path d="M52.3334 34.5434V36.0001C52.3314 39.4144 51.2258 42.7367 49.1815 45.4713C47.1371 48.206 44.2636 50.2065 40.9893 51.1746C37.7151 52.1427 34.2157 52.0265 31.0129 50.8432C27.8102 49.66 25.0757 47.4731 23.2174 44.6088C21.359 41.7445 20.4764 38.3562 20.701 34.9493C20.9257 31.5423 22.2456 28.2993 24.464 25.7038C26.6823 23.1083 29.6803 21.2995 33.0107 20.547C36.341 19.7946 39.8254 20.1388 42.9442 21.5284M52.3334 23.3334L36.5 39.1826L31.75 34.4326" stroke="#039855" stroke-width="3.11526" stroke-linecap="round" stroke-linejoin="round"/>
<rect x="4.5" y="4" width="64" height="64" rx="32" stroke="#ECFDF3" stroke-width="8"/>
</svg>
