<svg width="24" height="24" viewBox="0 0 24 24" fill="none" xmlns="http://www.w3.org/2000/svg">
<path d="M12 0C5.37236 0 0 5.37236 0 12C0 18.6276 5.37236 24 12 24C18.6276 24 24 18.6276 24 12C24 5.37318 18.6276 0.000818833 12 0Z" fill="#2EBD59"/>
<path d="M17.5034 17.3069C17.288 17.6606 16.827 17.7711 16.4749 17.5558C13.6573 15.8338 10.1101 15.4448 5.93328 16.3988C5.53041 16.4913 5.12919 16.2391 5.03748 15.8362C4.94495 15.4334 5.19633 15.0321 5.60001 14.9404C10.1707 13.8964 14.0921 14.346 17.2553 16.2784C17.6074 16.4954 17.7196 16.9548 17.5034 17.3069Z" fill="#212327"/>
<path d="M18.9714 14.0405C18.7004 14.4811 18.1239 14.6186 17.6842 14.3484C14.4597 12.366 9.54175 11.792 5.7268 12.9498C5.23223 13.0997 4.70981 12.8205 4.55914 12.3267C4.41012 11.8321 4.68934 11.3105 5.1831 11.1599C9.54093 9.83745 14.9591 10.4778 18.6627 12.7541C19.1033 13.0252 19.2425 13.6008 18.9714 14.0405Z" fill="#212327"/>
<path d="M19.0978 10.6375C15.2296 8.34065 8.84924 8.12939 5.15631 9.24955C4.56347 9.42969 3.93624 9.09479 3.75692 8.50196C3.5776 7.90912 3.91168 7.2819 4.50533 7.10175C8.74443 5.81536 15.7905 6.06347 20.2433 8.70666C20.7764 9.02355 20.9516 9.71219 20.6355 10.2444C20.3203 10.7783 19.63 10.9544 19.0978 10.6375Z" fill="#212327"/>
</svg>
